<?xml version="1.0" encoding="UTF-8" standalone="no"?>
<!DOCTYPE svg PUBLIC "-//W3C//DTD SVG 1.1//EN"
 "http://www.w3.org/Graphics/SVG/1.1/DTD/svg11.dtd">
<!-- Generated by graphviz version 5.0.0 (20220707.1540)
 -->
<!-- Title: StorageDiagram Pages: 1 -->
<svg width="2185pt" height="710pt"
 viewBox="0.00 0.00 2184.72 710.00" xmlns="http://www.w3.org/2000/svg" xmlns:xlink="http://www.w3.org/1999/xlink">
<g id="graph0" class="graph" transform="scale(1 1) rotate(0) translate(4 706)">
<title>StorageDiagram</title>
<polygon fill="white" stroke="transparent" points="-4,4 -4,-706 2180.72,-706 2180.72,4 -4,4"/>
<!-- 7 -->
<g id="node1" class="node">
<title>7</title>
<polygon fill="#f2f2f2" stroke="black" points="0,-257.7 0,-604.9 611.69,-604.9 611.69,-257.7 0,-257.7"/>
<text text-anchor="middle" x="305.85" y="-588.3" font-family="Courier New" font-size="14.00">HexOneStaking &lt;&lt;Contract&gt;&gt;</text>
<polyline fill="none" stroke="black" points="0,-580.1 611.69,-580.1 "/>
<text text-anchor="middle" x="24.8" y="-563.5" font-family="Courier New" font-size="14.00">slot</text>
<polyline fill="none" stroke="black" points="0,-555.3 49.61,-555.3 "/>
<text text-anchor="middle" x="24.8" y="-538.7" font-family="Courier New" font-size="14.00">0</text>
<polyline fill="none" stroke="black" points="0,-530.5 49.61,-530.5 "/>
<text text-anchor="middle" x="24.8" y="-513.9" font-family="Courier New" font-size="14.00">1</text>
<polyline fill="none" stroke="black" points="0,-505.7 49.61,-505.7 "/>
<text text-anchor="middle" x="24.8" y="-489.1" font-family="Courier New" font-size="14.00">2&#45;3</text>
<polyline fill="none" stroke="black" points="0,-480.9 49.61,-480.9 "/>
<text text-anchor="middle" x="24.8" y="-464.3" font-family="Courier New" font-size="14.00">4</text>
<polyline fill="none" stroke="black" points="0,-456.1 49.61,-456.1 "/>
<text text-anchor="middle" x="24.8" y="-439.5" font-family="Courier New" font-size="14.00">5</text>
<polyline fill="none" stroke="black" points="0,-431.3 49.61,-431.3 "/>
<text text-anchor="middle" x="24.8" y="-414.7" font-family="Courier New" font-size="14.00">6</text>
<polyline fill="none" stroke="black" points="0,-406.5 49.61,-406.5 "/>
<text text-anchor="middle" x="24.8" y="-389.9" font-family="Courier New" font-size="14.00">7</text>
<polyline fill="none" stroke="black" points="0,-381.7 49.61,-381.7 "/>
<text text-anchor="middle" x="24.8" y="-365.1" font-family="Courier New" font-size="14.00">8</text>
<polyline fill="none" stroke="black" points="0,-356.9 49.61,-356.9 "/>
<text text-anchor="middle" x="24.8" y="-340.3" font-family="Courier New" font-size="14.00">9</text>
<polyline fill="none" stroke="black" points="0,-332.1 49.61,-332.1 "/>
<text text-anchor="middle" x="24.8" y="-315.5" font-family="Courier New" font-size="14.00">10</text>
<polyline fill="none" stroke="black" points="0,-307.3 49.61,-307.3 "/>
<text text-anchor="middle" x="24.8" y="-290.7" font-family="Courier New" font-size="14.00">11</text>
<polyline fill="none" stroke="black" points="0,-282.5 49.61,-282.5 "/>
<text text-anchor="middle" x="24.8" y="-265.9" font-family="Courier New" font-size="14.00">12</text>
<polyline fill="none" stroke="black" points="49.61,-257.7 49.61,-580.1 "/>
<text text-anchor="middle" x="330.65" y="-563.5" font-family="Courier New" font-size="14.00">type: &lt;inherited contract&gt;.variable (bytes)</text>
<polyline fill="none" stroke="black" points="49.61,-555.3 611.69,-555.3 "/>
<text text-anchor="middle" x="164.82" y="-538.7" font-family="Courier New" font-size="14.00">unallocated (12)</text>
<polyline fill="none" stroke="black" points="280.03,-530.5 280.03,-555.3 "/>
<text text-anchor="middle" x="445.65" y="-538.7" font-family="Courier New" font-size="14.00">address: Ownable._owner (20)</text>
<polyline fill="none" stroke="black" points="49.61,-530.5 611.69,-530.5 "/>
<text text-anchor="middle" x="330.53" y="-513.9" font-family="Courier New" font-size="14.00">uint256: ReentrancyGuard._status (32)</text>
<polyline fill="none" stroke="black" points="49.61,-505.7 611.69,-505.7 "/>
<text text-anchor="middle" x="330.53" y="-489.1" font-family="Courier New" font-size="14.00">EnumerableSet.AddressSet: stakeTokens (64)</text>
<polyline fill="none" stroke="black" points="49.61,-480.9 611.69,-480.9 "/>
<text text-anchor="middle" x="330.43" y="-464.3" font-family="Courier New" font-size="14.00">mapping(address=&gt;Pool): pools (32)</text>
<polyline fill="none" stroke="black" points="49.61,-456.1 611.69,-456.1 "/>
<text text-anchor="middle" x="330.44" y="-439.5" font-family="Courier New" font-size="14.00">mapping(address=&gt;uint256): stakeTokenWeights (32)</text>
<polyline fill="none" stroke="black" points="49.61,-431.3 611.69,-431.3 "/>
<text text-anchor="middle" x="330.65" y="-414.7" font-family="Courier New" font-size="14.00">mapping(uint256=&gt;mapping(address=&gt;PoolHistory)): poolHistory (32)</text>
<polyline fill="none" stroke="black" points="49.61,-406.5 611.69,-406.5 "/>
<text text-anchor="middle" x="330.33" y="-389.9" font-family="Courier New" font-size="14.00">uint256: stakingLaunchTime (32)</text>
<polyline fill="none" stroke="black" points="49.61,-381.7 611.69,-381.7 "/>
<text text-anchor="middle" x="173.32" y="-365.1" font-family="Courier New" font-size="14.00">unallocated (31)</text>
<polyline fill="none" stroke="black" points="297.03,-356.9 297.03,-381.7 "/>
<text text-anchor="middle" x="454.34" y="-365.1" font-family="Courier New" font-size="14.00">bool: stakingEnabled (1)</text>
<polyline fill="none" stroke="black" points="49.61,-356.9 611.69,-356.9 "/>
<text text-anchor="middle" x="330.45" y="-340.3" font-family="Courier New" font-size="14.00">mapping(address=&gt;mapping(address=&gt;StakeInfo)): stakingInfos (32)</text>
<polyline fill="none" stroke="black" points="49.61,-332.1 611.69,-332.1 "/>
<text text-anchor="middle" x="330.44" y="-315.5" font-family="Courier New" font-size="14.00">mapping(address=&gt;uint256): totalStakedAmount (32)</text>
<polyline fill="none" stroke="black" points="49.61,-307.3 611.69,-307.3 "/>
<text text-anchor="middle" x="170.82" y="-290.7" font-family="Courier New" font-size="14.00">unallocated (12)</text>
<polyline fill="none" stroke="black" points="292.03,-282.5 292.03,-307.3 "/>
<text text-anchor="middle" x="451.54" y="-290.7" font-family="Courier New" font-size="14.00">address: hexOneVault (20)</text>
<polyline fill="none" stroke="black" points="49.61,-282.5 611.69,-282.5 "/>
<text text-anchor="middle" x="162.82" y="-265.9" font-family="Courier New" font-size="14.00">unallocated (12)</text>
<polyline fill="none" stroke="black" points="276.03,-257.7 276.03,-282.5 "/>
<text text-anchor="middle" x="443.85" y="-265.9" font-family="Courier New" font-size="14.00">address: hexOneBootstrap (20)</text>
</g>
<!-- 3 -->
<g id="node4" class="node">
<title>3</title>
<polygon fill="#f2f2f2" stroke="black" points="726.7,-627.1 726.7,-701.5 1036.75,-701.5 1036.75,-627.1 726.7,-627.1"/>
<text text-anchor="middle" x="881.73" y="-684.9" font-family="Courier New" font-size="14.00">EnumerableSet.AddressSet &lt;&lt;Struct&gt;&gt;</text>
<polyline fill="none" stroke="black" points="726.7,-676.7 1036.75,-676.7 "/>
<text text-anchor="middle" x="755.51" y="-660.1" font-family="Courier New" font-size="14.00">slot</text>
<polyline fill="none" stroke="black" points="726.7,-651.9 784.31,-651.9 "/>
<text text-anchor="middle" x="755.51" y="-635.3" font-family="Courier New" font-size="14.00">2&#45;3</text>
<polyline fill="none" stroke="black" points="784.31,-627.1 784.31,-676.7 "/>
<text text-anchor="middle" x="910.23" y="-660.1" font-family="Courier New" font-size="14.00">type: variable (bytes)</text>
<polyline fill="none" stroke="black" points="784.31,-651.9 1036.15,-651.9 "/>
<text text-anchor="middle" x="910.23" y="-635.3" font-family="Courier New" font-size="14.00">Set: AddressSet._inner (64)</text>
</g>
<!-- 7&#45;&gt;3 -->
<g id="edge1" class="edge">
<title>7:7&#45;&gt;3</title>
<path fill="none" stroke="black" d="M611.69,-493.3C669.08,-493.3 605.46,-578.45 647.69,-617.3 667.09,-635.14 691.3,-647 716.73,-654.76"/>
<polygon fill="black" stroke="black" points="715.95,-658.18 726.52,-657.54 717.86,-651.44 715.95,-658.18"/>
</g>
<!-- 4 -->
<g id="node5" class="node">
<title>4</title>
<polygon fill="#f2f2f2" stroke="black" points="647.69,-434.5 647.69,-608.1 1115.76,-608.1 1115.76,-434.5 647.69,-434.5"/>
<text text-anchor="middle" x="881.73" y="-591.5" font-family="Courier New" font-size="14.00">Pool &lt;&lt;Struct&gt;&gt;</text>
<polyline fill="none" stroke="black" points="647.69,-583.3 1115.76,-583.3 "/>
<text text-anchor="middle" x="680.9" y="-566.7" font-family="Courier New" font-size="14.00">offset</text>
<polyline fill="none" stroke="black" points="647.69,-558.5 714.1,-558.5 "/>
<text text-anchor="middle" x="680.9" y="-541.9" font-family="Courier New" font-size="14.00">0</text>
<polyline fill="none" stroke="black" points="647.69,-533.7 714.1,-533.7 "/>
<text text-anchor="middle" x="680.9" y="-517.1" font-family="Courier New" font-size="14.00">1</text>
<polyline fill="none" stroke="black" points="647.69,-508.9 714.1,-508.9 "/>
<text text-anchor="middle" x="680.9" y="-492.3" font-family="Courier New" font-size="14.00">2</text>
<polyline fill="none" stroke="black" points="647.69,-484.1 714.1,-484.1 "/>
<text text-anchor="middle" x="680.9" y="-467.5" font-family="Courier New" font-size="14.00">3</text>
<polyline fill="none" stroke="black" points="647.69,-459.3 714.1,-459.3 "/>
<text text-anchor="middle" x="680.9" y="-442.7" font-family="Courier New" font-size="14.00">4</text>
<polyline fill="none" stroke="black" points="714.1,-434.5 714.1,-583.3 "/>
<text text-anchor="middle" x="914.93" y="-566.7" font-family="Courier New" font-size="14.00">type: variable (bytes)</text>
<polyline fill="none" stroke="black" points="714.1,-558.5 1115.76,-558.5 "/>
<text text-anchor="middle" x="914.62" y="-541.9" font-family="Courier New" font-size="14.00">uint256: totalAssets (32)</text>
<polyline fill="none" stroke="black" points="714.1,-533.7 1115.76,-533.7 "/>
<text text-anchor="middle" x="914.82" y="-517.1" font-family="Courier New" font-size="14.00">uint256: distributedAssets (32)</text>
<polyline fill="none" stroke="black" points="714.1,-508.9 1115.76,-508.9 "/>
<text text-anchor="middle" x="914.62" y="-492.3" font-family="Courier New" font-size="14.00">uint256: totalShares (32)</text>
<polyline fill="none" stroke="black" points="714.1,-484.1 1115.76,-484.1 "/>
<text text-anchor="middle" x="914.82" y="-467.5" font-family="Courier New" font-size="14.00">uint256: currentStakingDay (32)</text>
<polyline fill="none" stroke="black" points="714.1,-459.3 1115.76,-459.3 "/>
<text text-anchor="middle" x="789.31" y="-442.7" font-family="Courier New" font-size="14.00">unallocated (30)</text>
<polyline fill="none" stroke="black" points="864.52,-434.5 864.52,-459.3 "/>
<text text-anchor="middle" x="990.14" y="-442.7" font-family="Courier New" font-size="14.00">uint16: distributionRate (2)</text>
</g>
<!-- 7&#45;&gt;4 -->
<g id="edge2" class="edge">
<title>7:13&#45;&gt;4</title>
<path fill="none" stroke="black" d="M611.69,-468.3C620.16,-468.3 628.75,-468.56 637.41,-469.03"/>
<polygon fill="black" stroke="black" points="637.39,-472.54 647.59,-469.69 637.84,-465.55 637.39,-472.54"/>
</g>
<!-- 5 -->
<g id="node6" class="node">
<title>5</title>
<polygon fill="#f2f2f2" stroke="black" points="706.1,-316.7 706.1,-415.9 1057.35,-415.9 1057.35,-316.7 706.1,-316.7"/>
<text text-anchor="middle" x="881.73" y="-399.3" font-family="Courier New" font-size="14.00">PoolHistory &lt;&lt;Struct&gt;&gt;</text>
<polyline fill="none" stroke="black" points="706.1,-391.1 1057.35,-391.1 "/>
<text text-anchor="middle" x="739.31" y="-374.5" font-family="Courier New" font-size="14.00">offset</text>
<polyline fill="none" stroke="black" points="706.1,-366.3 772.51,-366.3 "/>
<text text-anchor="middle" x="739.31" y="-349.7" font-family="Courier New" font-size="14.00">0</text>
<polyline fill="none" stroke="black" points="706.1,-341.5 772.51,-341.5 "/>
<text text-anchor="middle" x="739.31" y="-324.9" font-family="Courier New" font-size="14.00">1</text>
<polyline fill="none" stroke="black" points="772.51,-316.7 772.51,-391.1 "/>
<text text-anchor="middle" x="914.93" y="-374.5" font-family="Courier New" font-size="14.00">type: variable (bytes)</text>
<polyline fill="none" stroke="black" points="772.51,-366.3 1057.35,-366.3 "/>
<text text-anchor="middle" x="914.53" y="-349.7" font-family="Courier New" font-size="14.00">uint256: totalShares (32)</text>
<polyline fill="none" stroke="black" points="772.51,-341.5 1057.35,-341.5 "/>
<text text-anchor="middle" x="914.93" y="-324.9" font-family="Courier New" font-size="14.00">uint256: amountToDistribute (32)</text>
</g>
<!-- 7&#45;&gt;5 -->
<g id="edge3" class="edge">
<title>7:17&#45;&gt;5</title>
<path fill="none" stroke="black" d="M611.69,-419.3C639.16,-419.3 667.91,-416.61 695.98,-412.44"/>
<polygon fill="black" stroke="black" points="696.52,-415.89 705.87,-410.9 695.45,-408.98 696.52,-415.89"/>
</g>
<!-- 6 -->
<g id="node7" class="node">
<title>6</title>
<polygon fill="#f2f2f2" stroke="black" points="710.3,-0.5 710.3,-298.1 1053.15,-298.1 1053.15,-0.5 710.3,-0.5"/>
<text text-anchor="middle" x="881.73" y="-281.5" font-family="Courier New" font-size="14.00">StakeInfo &lt;&lt;Struct&gt;&gt;</text>
<polyline fill="none" stroke="black" points="710.3,-273.3 1053.15,-273.3 "/>
<text text-anchor="middle" x="743.51" y="-256.7" font-family="Courier New" font-size="14.00">offset</text>
<polyline fill="none" stroke="black" points="710.3,-248.5 776.71,-248.5 "/>
<text text-anchor="middle" x="743.51" y="-231.9" font-family="Courier New" font-size="14.00">0</text>
<polyline fill="none" stroke="black" points="710.3,-223.7 776.71,-223.7 "/>
<text text-anchor="middle" x="743.51" y="-207.1" font-family="Courier New" font-size="14.00">1</text>
<polyline fill="none" stroke="black" points="710.3,-198.9 776.71,-198.9 "/>
<text text-anchor="middle" x="743.51" y="-182.3" font-family="Courier New" font-size="14.00">2</text>
<polyline fill="none" stroke="black" points="710.3,-174.1 776.71,-174.1 "/>
<text text-anchor="middle" x="743.51" y="-157.5" font-family="Courier New" font-size="14.00">3</text>
<polyline fill="none" stroke="black" points="710.3,-149.3 776.71,-149.3 "/>
<text text-anchor="middle" x="743.51" y="-132.7" font-family="Courier New" font-size="14.00">4</text>
<polyline fill="none" stroke="black" points="710.3,-124.5 776.71,-124.5 "/>
<text text-anchor="middle" x="743.51" y="-107.9" font-family="Courier New" font-size="14.00">5</text>
<polyline fill="none" stroke="black" points="710.3,-99.7 776.71,-99.7 "/>
<text text-anchor="middle" x="743.51" y="-83.1" font-family="Courier New" font-size="14.00">6</text>
<polyline fill="none" stroke="black" points="710.3,-74.9 776.71,-74.9 "/>
<text text-anchor="middle" x="743.51" y="-58.3" font-family="Courier New" font-size="14.00">7</text>
<polyline fill="none" stroke="black" points="710.3,-50.1 776.71,-50.1 "/>
<text text-anchor="middle" x="743.51" y="-33.5" font-family="Courier New" font-size="14.00">8</text>
<polyline fill="none" stroke="black" points="710.3,-25.3 776.71,-25.3 "/>
<text text-anchor="middle" x="743.51" y="-8.7" font-family="Courier New" font-size="14.00">9</text>
<polyline fill="none" stroke="black" points="776.71,-0.5 776.71,-273.3 "/>
<text text-anchor="middle" x="914.93" y="-256.7" font-family="Courier New" font-size="14.00">type: variable (bytes)</text>
<polyline fill="none" stroke="black" points="776.71,-248.5 1053.15,-248.5 "/>
<text text-anchor="middle" x="914.93" y="-231.9" font-family="Courier New" font-size="14.00">uint256: stakedAmount (32)</text>
<polyline fill="none" stroke="black" points="776.71,-223.7 1053.15,-223.7 "/>
<text text-anchor="middle" x="914.93" y="-207.1" font-family="Courier New" font-size="14.00">uint256: initStakeDay (32)</text>
<polyline fill="none" stroke="black" points="776.71,-198.9 1053.15,-198.9 "/>
<text text-anchor="middle" x="914.83" y="-182.3" font-family="Courier New" font-size="14.00">uint256: lastClaimedDay (32)</text>
<polyline fill="none" stroke="black" points="776.71,-174.1 1053.15,-174.1 "/>
<text text-anchor="middle" x="914.73" y="-157.5" font-family="Courier New" font-size="14.00">uint256: lastDepositedDay (32)</text>
<polyline fill="none" stroke="black" points="776.71,-149.3 1053.15,-149.3 "/>
<text text-anchor="middle" x="914.53" y="-132.7" font-family="Courier New" font-size="14.00">uint256: hexSharesAmount (32)</text>
<polyline fill="none" stroke="black" points="776.71,-124.5 1053.15,-124.5 "/>
<text text-anchor="middle" x="914.93" y="-107.9" font-family="Courier New" font-size="14.00">uint256: hexitSharesAmount (32)</text>
<polyline fill="none" stroke="black" points="776.71,-99.7 1053.15,-99.7 "/>
<text text-anchor="middle" x="914.93" y="-83.1" font-family="Courier New" font-size="14.00">uint256: unclaimedHex (32)</text>
<polyline fill="none" stroke="black" points="776.71,-74.9 1053.15,-74.9 "/>
<text text-anchor="middle" x="914.83" y="-58.3" font-family="Courier New" font-size="14.00">uint256: unclaimedHexit (32)</text>
<polyline fill="none" stroke="black" points="776.71,-50.1 1053.15,-50.1 "/>
<text text-anchor="middle" x="914.53" y="-33.5" font-family="Courier New" font-size="14.00">uint256: totalHexClaimed (32)</text>
<polyline fill="none" stroke="black" points="776.71,-25.3 1053.15,-25.3 "/>
<text text-anchor="middle" x="914.93" y="-8.7" font-family="Courier New" font-size="14.00">uint256: totalHexitClaimed (32)</text>
</g>
<!-- 7&#45;&gt;6 -->
<g id="edge4" class="edge">
<title>7:30&#45;&gt;6</title>
<path fill="none" stroke="black" d="M611.69,-344.3C634.64,-344.3 630.11,-322.04 647.69,-307.3 664.75,-293.01 683.1,-278.81 701.76,-265.11"/>
<polygon fill="black" stroke="black" points="704.03,-267.79 710.06,-259.07 699.91,-262.13 704.03,-267.79"/>
</g>
<!-- 1 -->
<g id="node2" class="node">
<title>1</title>
<polygon fill="#f2f2f2" stroke="black" points="1606.23,-581.7 1606.23,-672.9 2176.72,-672.9 2176.72,-581.7 1606.23,-581.7"/>
<text text-anchor="middle" x="1891.47" y="-656.3" font-family="Courier New" font-size="14.00">bytes32[]: _values &lt;&lt;Array&gt;&gt;</text>
<text text-anchor="middle" x="1891.47" y="-639.5" font-family="Courier New" font-size="14.00">0x405787fa12a823e0f2b7631cc41b3ba8828b3321ca811111fa75cd3aa3bb5ace</text>
<polyline fill="none" stroke="black" points="1606.23,-631.3 2176.72,-631.3 "/>
<text text-anchor="middle" x="1714.93" y="-614.7" font-family="Courier New" font-size="14.00">offset</text>
<polyline fill="none" stroke="black" points="1606.23,-606.5 1823.63,-606.5 "/>
<text text-anchor="middle" x="1714.93" y="-589.9" font-family="Courier New" font-size="14.00">0</text>
<polyline fill="none" stroke="black" points="1823.63,-581.7 1823.63,-631.3 "/>
<text text-anchor="middle" x="2000.05" y="-614.7" font-family="Courier New" font-size="14.00">type: variable (bytes)</text>
<polyline fill="none" stroke="black" points="1823.63,-606.5 2176.46,-606.5 "/>
<text text-anchor="middle" x="2000.04" y="-589.9" font-family="Courier New" font-size="14.00">bytes32 (32)</text>
</g>
<!-- 2 -->
<g id="node3" class="node">
<title>2</title>
<polygon fill="#f2f2f2" stroke="black" points="1151.76,-589.7 1151.76,-688.9 1570.23,-688.9 1570.23,-589.7 1151.76,-589.7"/>
<text text-anchor="middle" x="1360.99" y="-672.3" font-family="Courier New" font-size="14.00">Set &lt;&lt;Struct&gt;&gt;</text>
<polyline fill="none" stroke="black" points="1151.76,-664.1 1570.23,-664.1 "/>
<text text-anchor="middle" x="1176.57" y="-647.5" font-family="Courier New" font-size="14.00">slot</text>
<polyline fill="none" stroke="black" points="1151.76,-639.3 1201.37,-639.3 "/>
<text text-anchor="middle" x="1176.57" y="-622.7" font-family="Courier New" font-size="14.00">2</text>
<polyline fill="none" stroke="black" points="1151.76,-614.5 1201.37,-614.5 "/>
<text text-anchor="middle" x="1176.57" y="-597.9" font-family="Courier New" font-size="14.00">3</text>
<polyline fill="none" stroke="black" points="1201.37,-589.7 1201.37,-664.1 "/>
<text text-anchor="middle" x="1385.8" y="-647.5" font-family="Courier New" font-size="14.00">type: variable (bytes)</text>
<polyline fill="none" stroke="black" points="1201.37,-639.3 1570.23,-639.3 "/>
<text text-anchor="middle" x="1385.48" y="-622.7" font-family="Courier New" font-size="14.00">bytes32[]: _values (32)</text>
<polyline fill="none" stroke="black" points="1201.37,-614.5 1570.23,-614.5 "/>
<text text-anchor="middle" x="1385.8" y="-597.9" font-family="Courier New" font-size="14.00">mapping(bytes32=&gt;uint256): _positions (32)</text>
</g>
<!-- 2&#45;&gt;1 -->
<g id="edge5" class="edge">
<title>2:4&#45;&gt;1</title>
<path fill="none" stroke="black" d="M1570.23,-627.3C1578.62,-627.3 1587.13,-627.3 1595.73,-627.3"/>
<polygon fill="black" stroke="black" points="1595.85,-630.8 1605.85,-627.3 1595.85,-623.8 1595.85,-630.8"/>
</g>
<!-- 3&#45;&gt;2 -->
<g id="edge6" class="edge">
<title>3:6&#45;&gt;2</title>
<path fill="none" stroke="black" d="M1036.73,-639.3C1070.57,-639.3 1106.4,-639.3 1141.41,-639.3"/>
<polygon fill="black" stroke="black" points="1141.75,-642.8 1151.75,-639.3 1141.75,-635.8 1141.75,-642.8"/>
</g>
</g>
</svg>
