<?xml version="1.0" encoding="UTF-8" standalone="no"?>
<!DOCTYPE svg PUBLIC "-//W3C//DTD SVG 1.1//EN"
 "http://www.w3.org/Graphics/SVG/1.1/DTD/svg11.dtd">
<!-- Generated by graphviz version 5.0.0 (20220707.1540)
 -->
<!-- Title: StorageDiagram Pages: 1 -->
<svg width="2451pt" height="547pt"
 viewBox="0.00 0.00 2451.15 546.80" xmlns="http://www.w3.org/2000/svg" xmlns:xlink="http://www.w3.org/1999/xlink">
<g id="graph0" class="graph" transform="scale(1 1) rotate(0) translate(4 542.8)">
<title>StorageDiagram</title>
<polygon fill="white" stroke="transparent" points="-4,4 -4,-542.8 2447.15,-542.8 2447.15,4 -4,4"/>
<!-- 5 -->
<g id="node1" class="node">
<title>5</title>
<polygon fill="#f2f2f2" stroke="black" points="0,-91.9 0,-538.3 677.3,-538.3 677.3,-91.9 0,-91.9"/>
<text text-anchor="middle" x="338.65" y="-521.7" font-family="Courier New" font-size="14.00">HexOneBootstrap &lt;&lt;Contract&gt;&gt;</text>
<polyline fill="none" stroke="black" points="0,-513.5 677.3,-513.5 "/>
<text text-anchor="middle" x="29" y="-496.9" font-family="Courier New" font-size="14.00">slot</text>
<polyline fill="none" stroke="black" points="0,-488.7 58.01,-488.7 "/>
<text text-anchor="middle" x="29" y="-472.1" font-family="Courier New" font-size="14.00">0</text>
<polyline fill="none" stroke="black" points="0,-463.9 58.01,-463.9 "/>
<text text-anchor="middle" x="29" y="-447.3" font-family="Courier New" font-size="14.00">1</text>
<polyline fill="none" stroke="black" points="0,-439.1 58.01,-439.1 "/>
<text text-anchor="middle" x="29" y="-422.5" font-family="Courier New" font-size="14.00">2</text>
<polyline fill="none" stroke="black" points="0,-414.3 58.01,-414.3 "/>
<text text-anchor="middle" x="29" y="-397.7" font-family="Courier New" font-size="14.00">3</text>
<polyline fill="none" stroke="black" points="0,-389.5 58.01,-389.5 "/>
<text text-anchor="middle" x="29" y="-372.9" font-family="Courier New" font-size="14.00">4</text>
<polyline fill="none" stroke="black" points="0,-364.7 58.01,-364.7 "/>
<text text-anchor="middle" x="29" y="-348.1" font-family="Courier New" font-size="14.00">5</text>
<polyline fill="none" stroke="black" points="0,-339.9 58.01,-339.9 "/>
<text text-anchor="middle" x="29" y="-323.3" font-family="Courier New" font-size="14.00">6</text>
<polyline fill="none" stroke="black" points="0,-315.1 58.01,-315.1 "/>
<text text-anchor="middle" x="29" y="-298.5" font-family="Courier New" font-size="14.00">7</text>
<polyline fill="none" stroke="black" points="0,-290.3 58.01,-290.3 "/>
<text text-anchor="middle" x="29" y="-273.7" font-family="Courier New" font-size="14.00">8</text>
<polyline fill="none" stroke="black" points="0,-265.5 58.01,-265.5 "/>
<text text-anchor="middle" x="29" y="-248.9" font-family="Courier New" font-size="14.00">9</text>
<polyline fill="none" stroke="black" points="0,-240.7 58.01,-240.7 "/>
<text text-anchor="middle" x="29" y="-224.1" font-family="Courier New" font-size="14.00">10</text>
<polyline fill="none" stroke="black" points="0,-215.9 58.01,-215.9 "/>
<text text-anchor="middle" x="29" y="-199.3" font-family="Courier New" font-size="14.00">11</text>
<polyline fill="none" stroke="black" points="0,-191.1 58.01,-191.1 "/>
<text text-anchor="middle" x="29" y="-174.5" font-family="Courier New" font-size="14.00">12</text>
<polyline fill="none" stroke="black" points="0,-166.3 58.01,-166.3 "/>
<text text-anchor="middle" x="29" y="-149.7" font-family="Courier New" font-size="14.00">13</text>
<polyline fill="none" stroke="black" points="0,-141.5 58.01,-141.5 "/>
<text text-anchor="middle" x="29" y="-124.9" font-family="Courier New" font-size="14.00">14</text>
<polyline fill="none" stroke="black" points="0,-116.7 58.01,-116.7 "/>
<text text-anchor="middle" x="29" y="-100.1" font-family="Courier New" font-size="14.00">15&#45;16</text>
<polyline fill="none" stroke="black" points="58.01,-91.9 58.01,-513.5 "/>
<text text-anchor="middle" x="367.65" y="-496.9" font-family="Courier New" font-size="14.00">type: &lt;inherited contract&gt;.variable (bytes)</text>
<polyline fill="none" stroke="black" points="58.01,-488.7 677.3,-488.7 "/>
<text text-anchor="middle" x="187.22" y="-472.1" font-family="Courier New" font-size="14.00">unallocated (12)</text>
<polyline fill="none" stroke="black" points="316.43,-463.9 316.43,-488.7 "/>
<text text-anchor="middle" x="496.55" y="-472.1" font-family="Courier New" font-size="14.00">address: Ownable._owner (20)</text>
<polyline fill="none" stroke="black" points="58.01,-463.9 677.3,-463.9 "/>
<text text-anchor="middle" x="185.22" y="-447.3" font-family="Courier New" font-size="14.00">unallocated (12)</text>
<polyline fill="none" stroke="black" points="312.43,-439.1 312.43,-463.9 "/>
<text text-anchor="middle" x="494.75" y="-447.3" font-family="Courier New" font-size="14.00">address: hexOnePriceFeed (20)</text>
<polyline fill="none" stroke="black" points="58.01,-439.1 677.3,-439.1 "/>
<text text-anchor="middle" x="189.72" y="-422.5" font-family="Courier New" font-size="14.00">unallocated (12)</text>
<polyline fill="none" stroke="black" points="321.43,-414.3 321.43,-439.1 "/>
<text text-anchor="middle" x="499.35" y="-422.5" font-family="Courier New" font-size="14.00">address: hexOneStaking (20)</text>
<polyline fill="none" stroke="black" points="58.01,-414.3 677.3,-414.3 "/>
<text text-anchor="middle" x="193.72" y="-397.7" font-family="Courier New" font-size="14.00">unallocated (12)</text>
<polyline fill="none" stroke="black" points="329.43,-389.5 329.43,-414.3 "/>
<text text-anchor="middle" x="502.95" y="-397.7" font-family="Courier New" font-size="14.00">address: hexOneVault (20)</text>
<polyline fill="none" stroke="black" points="58.01,-389.5 677.3,-389.5 "/>
<text text-anchor="middle" x="367.63" y="-372.9" font-family="Courier New" font-size="14.00">uint256: totalHexAmount (32)</text>
<polyline fill="none" stroke="black" points="58.01,-364.7 677.3,-364.7 "/>
<text text-anchor="middle" x="367.43" y="-348.1" font-family="Courier New" font-size="14.00">uint256: totalSacrificedUSD (32)</text>
<polyline fill="none" stroke="black" points="58.01,-339.9 677.3,-339.9 "/>
<text text-anchor="middle" x="367.53" y="-323.3" font-family="Courier New" font-size="14.00">uint256: totalHexitMinted (32)</text>
<polyline fill="none" stroke="black" points="58.01,-315.1 677.3,-315.1 "/>
<text text-anchor="middle" x="367.63" y="-298.5" font-family="Courier New" font-size="14.00">uint256: sacrificeStart (32)</text>
<polyline fill="none" stroke="black" points="58.01,-290.3 677.3,-290.3 "/>
<text text-anchor="middle" x="367.22" y="-273.7" font-family="Courier New" font-size="14.00">uint256: sacrificeEnd (32)</text>
<polyline fill="none" stroke="black" points="58.01,-265.5 677.3,-265.5 "/>
<text text-anchor="middle" x="367.43" y="-248.9" font-family="Courier New" font-size="14.00">uint256: sacrificeClaimPeriodEnd (32)</text>
<polyline fill="none" stroke="black" points="58.01,-240.7 677.3,-240.7 "/>
<text text-anchor="middle" x="367.22" y="-224.1" font-family="Courier New" font-size="14.00">uint256: airdropStart (32)</text>
<polyline fill="none" stroke="black" points="58.01,-215.9 677.3,-215.9 "/>
<text text-anchor="middle" x="367.32" y="-199.3" font-family="Courier New" font-size="14.00">uint256: airdropEnd (32)</text>
<polyline fill="none" stroke="black" points="58.01,-191.1 677.3,-191.1 "/>
<text text-anchor="middle" x="367.44" y="-174.5" font-family="Courier New" font-size="14.00">mapping(address=&gt;UserInfo): userInfos (32)</text>
<polyline fill="none" stroke="black" points="58.01,-166.3 677.3,-166.3 "/>
<text text-anchor="middle" x="367.44" y="-149.7" font-family="Courier New" font-size="14.00">mapping(address=&gt;uint16): tokenMultipliers (32)</text>
<polyline fill="none" stroke="black" points="58.01,-141.5 677.3,-141.5 "/>
<text text-anchor="middle" x="133.22" y="-124.9" font-family="Courier New" font-size="14.00">unallocated (30)</text>
<polyline fill="none" stroke="black" points="208.43,-116.7 208.43,-141.5 "/>
<text text-anchor="middle" x="317.25" y="-124.9" font-family="Courier New" font-size="14.00">bool: airdropStarted (1)</text>
<polyline fill="none" stroke="black" points="426.06,-116.7 426.06,-141.5 "/>
<text text-anchor="middle" x="551.68" y="-124.9" font-family="Courier New" font-size="14.00">bool: sacrificeProcessed (1)</text>
<polyline fill="none" stroke="black" points="58.01,-116.7 677.3,-116.7 "/>
<text text-anchor="middle" x="367.24" y="-100.1" font-family="Courier New" font-size="14.00">EnumerableSet.AddressSet: sacrificeTokens (64)</text>
</g>
<!-- 1 -->
<g id="node2" class="node">
<title>1</title>
<polygon fill="#f2f2f2" stroke="black" points="713.3,-139.1 713.3,-263.1 1382.2,-263.1 1382.2,-139.1 713.3,-139.1"/>
<text text-anchor="middle" x="1047.75" y="-246.5" font-family="Courier New" font-size="14.00">UserInfo &lt;&lt;Struct&gt;&gt;</text>
<polyline fill="none" stroke="black" points="713.3,-238.3 1382.2,-238.3 "/>
<text text-anchor="middle" x="746.5" y="-221.7" font-family="Courier New" font-size="14.00">offset</text>
<polyline fill="none" stroke="black" points="713.3,-213.5 779.71,-213.5 "/>
<text text-anchor="middle" x="746.5" y="-196.9" font-family="Courier New" font-size="14.00">0</text>
<polyline fill="none" stroke="black" points="713.3,-188.7 779.71,-188.7 "/>
<text text-anchor="middle" x="746.5" y="-172.1" font-family="Courier New" font-size="14.00">1</text>
<polyline fill="none" stroke="black" points="713.3,-163.9 779.71,-163.9 "/>
<text text-anchor="middle" x="746.5" y="-147.3" font-family="Courier New" font-size="14.00">2</text>
<polyline fill="none" stroke="black" points="779.71,-139.1 779.71,-238.3 "/>
<text text-anchor="middle" x="1080.95" y="-221.7" font-family="Courier New" font-size="14.00">type: variable (bytes)</text>
<polyline fill="none" stroke="black" points="779.71,-213.5 1382.2,-213.5 "/>
<text text-anchor="middle" x="1080.73" y="-196.9" font-family="Courier New" font-size="14.00">uint256: hexitShares (32)</text>
<polyline fill="none" stroke="black" points="779.71,-188.7 1382.2,-188.7 "/>
<text text-anchor="middle" x="1080.63" y="-172.1" font-family="Courier New" font-size="14.00">uint256: sacrificedUSD (32)</text>
<polyline fill="none" stroke="black" points="779.71,-163.9 1382.2,-163.9 "/>
<text text-anchor="middle" x="854.92" y="-147.3" font-family="Courier New" font-size="14.00">unallocated (30)</text>
<polyline fill="none" stroke="black" points="930.13,-139.1 930.13,-163.9 "/>
<text text-anchor="middle" x="1038.95" y="-147.3" font-family="Courier New" font-size="14.00">bool: claimedAirdrop (1)</text>
<polyline fill="none" stroke="black" points="1147.76,-139.1 1147.76,-163.9 "/>
<text text-anchor="middle" x="1264.98" y="-147.3" font-family="Courier New" font-size="14.00">bool: claimedSacrifice (1)</text>
</g>
<!-- 5&#45;&gt;1 -->
<g id="edge1" class="edge">
<title>5:17&#45;&gt;1</title>
<path fill="none" stroke="black" d="M677.3,-179.1C685.73,-179.1 694.26,-179.16 702.87,-179.27"/>
<polygon fill="black" stroke="black" points="702.96,-182.77 713.01,-179.42 703.06,-175.77 702.96,-182.77"/>
</g>
<!-- 4 -->
<g id="node5" class="node">
<title>4</title>
<polygon fill="#f2f2f2" stroke="black" points="892.73,-45.9 892.73,-120.3 1202.77,-120.3 1202.77,-45.9 892.73,-45.9"/>
<text text-anchor="middle" x="1047.75" y="-103.7" font-family="Courier New" font-size="14.00">EnumerableSet.AddressSet &lt;&lt;Struct&gt;&gt;</text>
<polyline fill="none" stroke="black" points="892.73,-95.5 1202.77,-95.5 "/>
<text text-anchor="middle" x="923.73" y="-78.9" font-family="Courier New" font-size="14.00">slot</text>
<polyline fill="none" stroke="black" points="892.73,-70.7 954.73,-70.7 "/>
<text text-anchor="middle" x="923.73" y="-54.1" font-family="Courier New" font-size="14.00">15&#45;16</text>
<polyline fill="none" stroke="black" points="954.73,-45.9 954.73,-95.5 "/>
<text text-anchor="middle" x="1078.65" y="-78.9" font-family="Courier New" font-size="14.00">type: variable (bytes)</text>
<polyline fill="none" stroke="black" points="954.73,-70.7 1202.57,-70.7 "/>
<text text-anchor="middle" x="1078.65" y="-54.1" font-family="Courier New" font-size="14.00">Set: AddressSet._inner (64)</text>
</g>
<!-- 5&#45;&gt;4 -->
<g id="edge2" class="edge">
<title>5:25&#45;&gt;4</title>
<path fill="none" stroke="black" d="M677.3,-104.1C744.53,-104.1 818.54,-100.59 882.54,-96.44"/>
<polygon fill="black" stroke="black" points="882.97,-99.92 892.72,-95.77 882.51,-92.94 882.97,-99.92"/>
</g>
<!-- 2 -->
<g id="node3" class="node">
<title>2</title>
<polygon fill="#f2f2f2" stroke="black" points="1872.66,-0.5 1872.66,-91.7 2443.15,-91.7 2443.15,-0.5 1872.66,-0.5"/>
<text text-anchor="middle" x="2157.91" y="-75.1" font-family="Courier New" font-size="14.00">bytes32[]: _values &lt;&lt;Array&gt;&gt;</text>
<text text-anchor="middle" x="2157.91" y="-58.3" font-family="Courier New" font-size="14.00">0x8d1108e10bcb7c27dddfc02ed9d693a074039d026cf4ea4240b40f7d581ac802</text>
<polyline fill="none" stroke="black" points="1872.66,-50.1 2443.15,-50.1 "/>
<text text-anchor="middle" x="1981.37" y="-33.5" font-family="Courier New" font-size="14.00">offset</text>
<polyline fill="none" stroke="black" points="1872.66,-25.3 2090.07,-25.3 "/>
<text text-anchor="middle" x="1981.37" y="-8.7" font-family="Courier New" font-size="14.00">0</text>
<polyline fill="none" stroke="black" points="2090.07,-0.5 2090.07,-50.1 "/>
<text text-anchor="middle" x="2266.48" y="-33.5" font-family="Courier New" font-size="14.00">type: variable (bytes)</text>
<polyline fill="none" stroke="black" points="2090.07,-25.3 2442.9,-25.3 "/>
<text text-anchor="middle" x="2266.48" y="-8.7" font-family="Courier New" font-size="14.00">bytes32 (32)</text>
</g>
<!-- 3 -->
<g id="node4" class="node">
<title>3</title>
<polygon fill="#f2f2f2" stroke="black" points="1418.2,-8.5 1418.2,-107.7 1836.66,-107.7 1836.66,-8.5 1418.2,-8.5"/>
<text text-anchor="middle" x="1627.43" y="-91.1" font-family="Courier New" font-size="14.00">Set &lt;&lt;Struct&gt;&gt;</text>
<polyline fill="none" stroke="black" points="1418.2,-82.9 1836.66,-82.9 "/>
<text text-anchor="middle" x="1443" y="-66.3" font-family="Courier New" font-size="14.00">slot</text>
<polyline fill="none" stroke="black" points="1418.2,-58.1 1467.8,-58.1 "/>
<text text-anchor="middle" x="1443" y="-41.5" font-family="Courier New" font-size="14.00">15</text>
<polyline fill="none" stroke="black" points="1418.2,-33.3 1467.8,-33.3 "/>
<text text-anchor="middle" x="1443" y="-16.7" font-family="Courier New" font-size="14.00">16</text>
<polyline fill="none" stroke="black" points="1467.8,-8.5 1467.8,-82.9 "/>
<text text-anchor="middle" x="1652.23" y="-66.3" font-family="Courier New" font-size="14.00">type: variable (bytes)</text>
<polyline fill="none" stroke="black" points="1467.8,-58.1 1836.66,-58.1 "/>
<text text-anchor="middle" x="1651.92" y="-41.5" font-family="Courier New" font-size="14.00">bytes32[]: _values (32)</text>
<polyline fill="none" stroke="black" points="1467.8,-33.3 1836.66,-33.3 "/>
<text text-anchor="middle" x="1652.23" y="-16.7" font-family="Courier New" font-size="14.00">mapping(bytes32=&gt;uint256): _positions (32)</text>
</g>
<!-- 3&#45;&gt;2 -->
<g id="edge3" class="edge">
<title>3:22&#45;&gt;2</title>
<path fill="none" stroke="black" d="M1836.66,-46.1C1845.05,-46.1 1853.57,-46.1 1862.16,-46.1"/>
<polygon fill="black" stroke="black" points="1862.29,-49.6 1872.29,-46.1 1862.29,-42.6 1862.29,-49.6"/>
</g>
<!-- 4&#45;&gt;3 -->
<g id="edge4" class="edge">
<title>4:24&#45;&gt;3</title>
<path fill="none" stroke="black" d="M1203.75,-58.1C1270.15,-58.1 1342.41,-58.1 1408.1,-58.1"/>
<polygon fill="black" stroke="black" points="1408.16,-61.6 1418.16,-58.1 1408.16,-54.6 1408.16,-61.6"/>
</g>
</g>
</svg>
