<?xml version="1.0" encoding="UTF-8" standalone="no"?>
<!DOCTYPE svg PUBLIC "-//W3C//DTD SVG 1.1//EN"
 "http://www.w3.org/Graphics/SVG/1.1/DTD/svg11.dtd">
<!-- Generated by graphviz version 5.0.0 (20220707.1540)
 -->
<!-- Title: StorageDiagram Pages: 1 -->
<svg width="1215pt" height="329pt"
 viewBox="0.00 0.00 1215.38 328.60" xmlns="http://www.w3.org/2000/svg" xmlns:xlink="http://www.w3.org/1999/xlink">
<g id="graph0" class="graph" transform="scale(1 1) rotate(0) translate(4 324.6)">
<title>StorageDiagram</title>
<polygon fill="white" stroke="transparent" points="-4,4 -4,-324.6 1211.38,-324.6 1211.38,4 -4,4"/>
<!-- 3 -->
<g id="node1" class="node">
<title>3</title>
<polygon fill="#f2f2f2" stroke="black" points="0,-96.9 0,-320.1 620.1,-320.1 620.1,-96.9 0,-96.9"/>
<text text-anchor="middle" x="310.05" y="-303.5" font-family="Courier New" font-size="14.00">HexOneVault &lt;&lt;Contract&gt;&gt;</text>
<polyline fill="none" stroke="black" points="0,-295.3 620.1,-295.3 "/>
<text text-anchor="middle" x="24.8" y="-278.7" font-family="Courier New" font-size="14.00">slot</text>
<polyline fill="none" stroke="black" points="0,-270.5 49.61,-270.5 "/>
<text text-anchor="middle" x="24.8" y="-253.9" font-family="Courier New" font-size="14.00">0</text>
<polyline fill="none" stroke="black" points="0,-245.7 49.61,-245.7 "/>
<text text-anchor="middle" x="24.8" y="-229.1" font-family="Courier New" font-size="14.00">1</text>
<polyline fill="none" stroke="black" points="0,-220.9 49.61,-220.9 "/>
<text text-anchor="middle" x="24.8" y="-204.3" font-family="Courier New" font-size="14.00">2</text>
<polyline fill="none" stroke="black" points="0,-196.1 49.61,-196.1 "/>
<text text-anchor="middle" x="24.8" y="-179.5" font-family="Courier New" font-size="14.00">3</text>
<polyline fill="none" stroke="black" points="0,-171.3 49.61,-171.3 "/>
<text text-anchor="middle" x="24.8" y="-154.7" font-family="Courier New" font-size="14.00">4</text>
<polyline fill="none" stroke="black" points="0,-146.5 49.61,-146.5 "/>
<text text-anchor="middle" x="24.8" y="-129.9" font-family="Courier New" font-size="14.00">5</text>
<polyline fill="none" stroke="black" points="0,-121.7 49.61,-121.7 "/>
<text text-anchor="middle" x="24.8" y="-105.1" font-family="Courier New" font-size="14.00">6</text>
<polyline fill="none" stroke="black" points="49.61,-96.9 49.61,-295.3 "/>
<text text-anchor="middle" x="334.85" y="-278.7" font-family="Courier New" font-size="14.00">type: &lt;inherited contract&gt;.variable (bytes)</text>
<polyline fill="none" stroke="black" points="49.61,-270.5 620.1,-270.5 "/>
<text text-anchor="middle" x="166.82" y="-253.9" font-family="Courier New" font-size="14.00">unallocated (12)</text>
<polyline fill="none" stroke="black" points="284.03,-245.7 284.03,-270.5 "/>
<text text-anchor="middle" x="451.65" y="-253.9" font-family="Courier New" font-size="14.00">address: Ownable._owner (20)</text>
<polyline fill="none" stroke="black" points="49.61,-245.7 620.1,-245.7 "/>
<text text-anchor="middle" x="164.82" y="-229.1" font-family="Courier New" font-size="14.00">unallocated (12)</text>
<polyline fill="none" stroke="black" points="280.03,-220.9 280.03,-245.7 "/>
<text text-anchor="middle" x="449.85" y="-229.1" font-family="Courier New" font-size="14.00">address: hexOnePriceFeed (20)</text>
<polyline fill="none" stroke="black" points="49.61,-220.9 620.1,-220.9 "/>
<text text-anchor="middle" x="168.82" y="-204.3" font-family="Courier New" font-size="14.00">unallocated (12)</text>
<polyline fill="none" stroke="black" points="288.03,-196.1 288.03,-220.9 "/>
<text text-anchor="middle" x="453.95" y="-204.3" font-family="Courier New" font-size="14.00">address: hexOneStaking (20)</text>
<polyline fill="none" stroke="black" points="49.61,-196.1 620.1,-196.1 "/>
<text text-anchor="middle" x="164.82" y="-179.5" font-family="Courier New" font-size="14.00">unallocated (12)</text>
<polyline fill="none" stroke="black" points="280.03,-171.3 280.03,-196.1 "/>
<text text-anchor="middle" x="449.85" y="-179.5" font-family="Courier New" font-size="14.00">address: hexOneBootstrap (20)</text>
<polyline fill="none" stroke="black" points="49.61,-171.3 620.1,-171.3 "/>
<text text-anchor="middle" x="334.85" y="-154.7" font-family="Courier New" font-size="14.00">mapping(address=&gt;mapping(uint256=&gt;DepositInfo)): depositInfos (32)</text>
<polyline fill="none" stroke="black" points="49.61,-146.5 620.1,-146.5 "/>
<text text-anchor="middle" x="334.53" y="-129.9" font-family="Courier New" font-size="14.00">mapping(address=&gt;UserInfo): userInfos (32)</text>
<polyline fill="none" stroke="black" points="49.61,-121.7 620.1,-121.7 "/>
<text text-anchor="middle" x="168.82" y="-105.1" font-family="Courier New" font-size="14.00">unallocated (31)</text>
<polyline fill="none" stroke="black" points="288.03,-96.9 288.03,-121.7 "/>
<text text-anchor="middle" x="453.95" y="-105.1" font-family="Courier New" font-size="14.00">bool: sacrificeFinished (1)</text>
</g>
<!-- 1 -->
<g id="node2" class="node">
<title>1</title>
<polygon fill="#f2f2f2" stroke="black" points="656.1,-143.7 656.1,-317.3 1207.38,-317.3 1207.38,-143.7 656.1,-143.7"/>
<text text-anchor="middle" x="931.74" y="-300.7" font-family="Courier New" font-size="14.00">DepositInfo &lt;&lt;Struct&gt;&gt;</text>
<polyline fill="none" stroke="black" points="656.1,-292.5 1207.38,-292.5 "/>
<text text-anchor="middle" x="689.3" y="-275.9" font-family="Courier New" font-size="14.00">offset</text>
<polyline fill="none" stroke="black" points="656.1,-267.7 722.5,-267.7 "/>
<text text-anchor="middle" x="689.3" y="-251.1" font-family="Courier New" font-size="14.00">0</text>
<polyline fill="none" stroke="black" points="656.1,-242.9 722.5,-242.9 "/>
<text text-anchor="middle" x="689.3" y="-226.3" font-family="Courier New" font-size="14.00">1</text>
<polyline fill="none" stroke="black" points="656.1,-218.1 722.5,-218.1 "/>
<text text-anchor="middle" x="689.3" y="-201.5" font-family="Courier New" font-size="14.00">2</text>
<polyline fill="none" stroke="black" points="656.1,-193.3 722.5,-193.3 "/>
<text text-anchor="middle" x="689.3" y="-176.7" font-family="Courier New" font-size="14.00">3</text>
<polyline fill="none" stroke="black" points="656.1,-168.5 722.5,-168.5 "/>
<text text-anchor="middle" x="689.3" y="-151.9" font-family="Courier New" font-size="14.00">4</text>
<polyline fill="none" stroke="black" points="722.5,-143.7 722.5,-292.5 "/>
<text text-anchor="middle" x="964.94" y="-275.9" font-family="Courier New" font-size="14.00">type: variable (bytes)</text>
<polyline fill="none" stroke="black" points="722.5,-267.7 1207.38,-267.7 "/>
<text text-anchor="middle" x="964.52" y="-251.1" font-family="Courier New" font-size="14.00">uint256: amount (32)</text>
<polyline fill="none" stroke="black" points="722.5,-242.9 1207.38,-242.9 "/>
<text text-anchor="middle" x="964.52" y="-226.3" font-family="Courier New" font-size="14.00">uint256: shares (32)</text>
<polyline fill="none" stroke="black" points="722.5,-218.1 1207.38,-218.1 "/>
<text text-anchor="middle" x="964.92" y="-201.5" font-family="Courier New" font-size="14.00">uint256: borrowed (32)</text>
<polyline fill="none" stroke="black" points="722.5,-193.3 1207.38,-193.3 "/>
<text text-anchor="middle" x="964.92" y="-176.7" font-family="Courier New" font-size="14.00">uint256: depositHexDay (32)</text>
<polyline fill="none" stroke="black" points="722.5,-168.5 1207.38,-168.5 "/>
<text text-anchor="middle" x="797.71" y="-151.9" font-family="Courier New" font-size="14.00">unallocated (29)</text>
<polyline fill="none" stroke="black" points="872.93,-143.7 872.93,-168.5 "/>
<text text-anchor="middle" x="948.14" y="-151.9" font-family="Courier New" font-size="14.00">bool: active (1)</text>
<polyline fill="none" stroke="black" points="1023.35,-143.7 1023.35,-168.5 "/>
<text text-anchor="middle" x="1115.36" y="-151.9" font-family="Courier New" font-size="14.00">uint16: duration (2)</text>
</g>
<!-- 3&#45;&gt;1 -->
<g id="edge1" class="edge">
<title>3:11&#45;&gt;1</title>
<path fill="none" stroke="black" d="M620.1,-158.5C628.55,-158.5 637.1,-158.76 645.71,-159.24"/>
<polygon fill="black" stroke="black" points="645.63,-162.74 655.84,-159.91 646.09,-155.76 645.63,-162.74"/>
</g>
<!-- 2 -->
<g id="node3" class="node">
<title>2</title>
<polygon fill="#f2f2f2" stroke="black" points="777.11,-0.5 777.11,-124.5 1086.36,-124.5 1086.36,-0.5 777.11,-0.5"/>
<text text-anchor="middle" x="931.74" y="-107.9" font-family="Courier New" font-size="14.00">UserInfo &lt;&lt;Struct&gt;&gt;</text>
<polyline fill="none" stroke="black" points="777.11,-99.7 1086.36,-99.7 "/>
<text text-anchor="middle" x="810.32" y="-83.1" font-family="Courier New" font-size="14.00">offset</text>
<polyline fill="none" stroke="black" points="777.11,-74.9 843.52,-74.9 "/>
<text text-anchor="middle" x="810.32" y="-58.3" font-family="Courier New" font-size="14.00">0</text>
<polyline fill="none" stroke="black" points="777.11,-50.1 843.52,-50.1 "/>
<text text-anchor="middle" x="810.32" y="-33.5" font-family="Courier New" font-size="14.00">1</text>
<polyline fill="none" stroke="black" points="777.11,-25.3 843.52,-25.3 "/>
<text text-anchor="middle" x="810.32" y="-8.7" font-family="Courier New" font-size="14.00">2</text>
<polyline fill="none" stroke="black" points="843.52,-0.5 843.52,-99.7 "/>
<text text-anchor="middle" x="964.94" y="-83.1" font-family="Courier New" font-size="14.00">type: variable (bytes)</text>
<polyline fill="none" stroke="black" points="843.52,-74.9 1086.36,-74.9 "/>
<text text-anchor="middle" x="964.54" y="-58.3" font-family="Courier New" font-size="14.00">uint256: totalAmount (32)</text>
<polyline fill="none" stroke="black" points="843.52,-50.1 1086.36,-50.1 "/>
<text text-anchor="middle" x="964.54" y="-33.5" font-family="Courier New" font-size="14.00">uint256: totalShares (32)</text>
<polyline fill="none" stroke="black" points="843.52,-25.3 1086.36,-25.3 "/>
<text text-anchor="middle" x="964.94" y="-8.7" font-family="Courier New" font-size="14.00">uint256: totalBorrowed (32)</text>
</g>
<!-- 3&#45;&gt;2 -->
<g id="edge2" class="edge">
<title>3:15&#45;&gt;2</title>
<path fill="none" stroke="black" d="M620.05,-134.5C668.51,-134.5 720.15,-126.08 767.13,-115.01"/>
<polygon fill="black" stroke="black" points="768.18,-118.35 777.08,-112.6 766.54,-111.55 768.18,-118.35"/>
</g>
</g>
</svg>
